<mxfile host="app.diagrams.net" modified="2024-01-26T09:24:25.639Z" agent="Mozilla/5.0 (Macintosh; Intel Mac OS X 10_15_7) AppleWebKit/537.36 (KHTML, like Gecko) Chrome/120.0.0.0 Safari/537.36" version="23.0.2" etag="aLyhxvbTvVqk0i82WZ2H" type="github">
  <diagram name="Страница — 1" id="P3ecLGZOcrYlWrDNnfcs">
    <mxGraphModel>
      <root>
        <mxCell id="0" />
        <mxCell id="1" parent="0" />
      </root>
    </mxGraphModel>
  </diagram>
</mxfile>
